<svg id="Frame5" xmlns="http://www.w3.org/2000/svg" width="4115" height="3355" viewBox="0 0 4115 3355">
  <defs>
    <style>
      .cls-1 {
        fill: #b55243;
      }

      .cls-1, .cls-10, .cls-11, .cls-12, .cls-13, .cls-14, .cls-15, .cls-16, .cls-17, .cls-18, .cls-19, .cls-2, .cls-20, .cls-21, .cls-22, .cls-23, .cls-24, .cls-25, .cls-26, .cls-27, .cls-28, .cls-29, .cls-3, .cls-30, .cls-31, .cls-32, .cls-33, .cls-34, .cls-35, .cls-4, .cls-5, .cls-6, .cls-7, .cls-8, .cls-9 {
        fill-rule: evenodd;
      }

      .cls-2 {
        fill: #b7413f;
      }

      .cls-3 {
        fill: #dc6a57;
      }

      .cls-4 {
        fill: #e28b5e;
      }

      .cls-5 {
        fill: #e2c396;
      }

      .cls-6 {
        fill: #ca9a79;
      }

      .cls-7 {
        fill: #aca88f;
      }

      .cls-8 {
        fill: #b7b39c;
      }

      .cls-9 {
        fill: #afab96;
      }

      .cls-10 {
        fill: #a69f8e;
      }

      .cls-11 {
        fill: #9a9682;
      }

      .cls-12 {
        fill: #858174;
      }

      .cls-13 {
        fill: #70685d;
      }

      .cls-14 {
        fill: #6d5d54;
      }

      .cls-15 {
        fill: #71514e;
      }

      .cls-16 {
        fill: #904b4c;
      }

      .cls-17 {
        fill: #994b49;
      }

      .cls-18 {
        fill: #5f2e37;
      }

      .cls-19 {
        fill: #663939;
      }

      .cls-20 {
        fill: #6f4b47;
      }

      .cls-21 {
        fill: #5a403a;
      }

      .cls-22 {
        fill: #5a3f3a;
      }

      .cls-23 {
        fill: #7d5648;
      }

      .cls-24 {
        fill: #865d4b;
      }

      .cls-25 {
        fill: #563d38;
      }

      .cls-26 {
        fill: #523839;
      }

      .cls-27 {
        fill: #4e3334;
      }

      .cls-28 {
        fill: #523632;
      }

      .cls-29 {
        fill: #976957;
      }

      .cls-30 {
        fill: #846850;
      }

      .cls-31 {
        fill: #a48365;
      }

      .cls-32 {
        fill: #7c5950;
      }

      .cls-33 {
        fill: #a87d6e;
      }

      .cls-34 {
        fill: #936c5f;
      }

      .cls-35 {
        fill: #553935;
      }
    </style>
  </defs>
  <g id="Poly">
    <g id="EarLeft">
      <path id="Polygon_4" data-name="Polygon 4" class="cls-1" d="M2452,1724l152.1,463.37L2384,2042.5Z"/>
      <path id="Polygon_5" data-name="Polygon 5" class="cls-2" d="M2601,2188l-147.5-460,166-66Z"/>
      <path id="Polygon_6" data-name="Polygon 6" class="cls-3" d="M2605.57,1664.96L3017.5,2156.5l-420,24Z"/>
      <path id="Polygon_7" data-name="Polygon 7" class="cls-4" d="M2606.5,1665.5l987.5,347L3006,2161Z"/>
      <path id="Polygon_8" data-name="Polygon 8" class="cls-5" d="M3594,2014l-992-344.5,111.5-48Z"/>
      <path id="Polygon_9" data-name="Polygon 9" class="cls-6" d="M2348.03,1439l371.29,185L2419.7,1784.62Z"/>
    </g>
    <g id="LeftFace">
      <path id="Polygon_10" data-name="Polygon 10" class="cls-7" d="M1976,1746.65l371.61-317.87,76.97,347.79Z"/>
      <path id="Polygon_11" data-name="Polygon 11" class="cls-7" d="M1975.82,1749.22l204.06-494.02,172.05,181.48Z"/>
      <path id="Polygon_12" data-name="Polygon 12" class="cls-8" d="M1981.06,1745.51l-40.41-592.44,244.4,105.97Z"/>
    </g>
    <path id="Polygon_13" data-name="Polygon 13" class="cls-9" d="M1979.39,1729.13l-379.41-599.16,346.48,24.24Z"/>
    <path id="Polygon_14" data-name="Polygon 14" class="cls-10" d="M1599.19,1128.38l384.05,599.44-370.06-5.69Z"/>
    <path id="Polygon_15" data-name="Polygon 15" class="cls-11" d="M1617.38,1727l-261.16-499.93,246.05-97.45Z"/>
    <path id="Polygon_16" data-name="Polygon 16" class="cls-12" d="M1622.36,1731.44l-438.84-295.5,184.45-215.41Z"/>
    <path id="Polygon_17" data-name="Polygon 17" class="cls-13" d="M1616.64,1722.65l-500.46-5.11,74.66-291.56Z"/>
    <g id="EarRight">
      <path id="Polygon_18" data-name="Polygon 18" class="cls-14" d="M1192.85,1425.52l-72.82,303.43L819.638,1621.84Z"/>
      <path id="Polygon_19" data-name="Polygon 19" class="cls-15" d="M0.459,1990.71l827.93-373.32,118.676,41.88Z"/>
      <path id="Polygon_20" data-name="Polygon 20" class="cls-16" d="M-0.186,1991.13L940.8,1658.03,552.667,2155.92Z"/>
      <path id="Polygon_21" data-name="Polygon 21" class="cls-17" d="M937.878,1656.42l21.249,509.83-421.022-15.71Z"/>
      <path id="Polygon_22" data-name="Polygon 22" class="cls-18" d="M949.167,2169.61l-20.808-516.02L1091,1707.08Z"/>
      <path id="Polygon_23" data-name="Polygon 23" class="cls-19" d="M944.466,2170.19l143.034-462.5,78.4,305.26Z"/>
      <path id="Polygon_24" data-name="Polygon 24" class="cls-20" d="M946.716,2163.91l222.694-157.92,21.3,82.12Z"/>
    </g>
    <path id="Polygon_25" data-name="Polygon 25" class="cls-21" d="M1986.31,1726l-802.8,368.73L1082.7,1705.2Z"/>
    <path id="Polygon_26" data-name="Polygon 26" class="cls-22" d="M1178.39,2089L1981,1724.69l25.43,361.88Z"/>
    <g id="LeftCuff">
      <path id="Polygon_3" data-name="Polygon 3" class="cls-23" d="M2460.56,1756.13L2388,2043.5l-408.99,45.06Z"/>
      <path id="Polygon_27" data-name="Polygon 27" class="cls-24" d="M2464.41,1759.71L1996,2089.83l-16.68-350.3Z"/>
    </g>
    <g id="RightArm">
      <path id="Polygon_28" data-name="Polygon 28" class="cls-25" d="M1182.22,2087.78L1100,2516l-290-21Z"/>
    </g>
    <path id="Polygon_29" data-name="Polygon 29" class="cls-26" d="M2093.61,2805.39L1038,2852l139.22-768.22Z"/>
    <path id="Polygon_30" data-name="Polygon 30" class="cls-27" d="M2090.47,2808l-916.16-721.22L2023,2075.31Z"/>
    <g id="LeftLeg">
      <path id="Polygon_31" data-name="Polygon 31" class="cls-28" d="M2020,2070.78l541.14,747.91-474.75-8.16Z"/>
      <path id="Polygon_32" data-name="Polygon 32" class="cls-29" d="M2022.78,2076.08l351.61-42.22L2555.92,2819Z"/>
    </g>
    <g id="LeftArm">
      <path id="Polygon_1" data-name="Polygon 1" class="cls-30" d="M2651.38,1680.85l-173.79,802.13L2373,2035Z"/>
      <path id="Polygon_2" data-name="Polygon 2" class="cls-31" d="M2649.23,1681.97l69.69,261.95-245.84,547.55Z"/>
    </g>
    <g id="Rocks">
      <g id="RockRight">
        <path id="Polygon_34" data-name="Polygon 34" class="cls-32" d="M3331.03,770.567l-569.8-256.256,303.54-304.16Z"/>
        <path id="Polygon_35" data-name="Polygon 35" class="cls-33" d="M3327.83,767.952L3123.05,1368.33l419.96-3.02Z"/>
        <path id="Polygon_36" data-name="Polygon 36" class="cls-34" d="M3331.41,769.945l275.22-568.124,296.36,301.13Z"/>
        <path id="Polygon_33" data-name="Polygon 33" class="cls-35" d="M3330.62,770.045L2733.79,991.739l-0.42-434.961Z"/>
        <g id="Crumbs">
          <path id="Polygon_39" data-name="Polygon 39" class="cls-35" d="M2788.03,235.42l271.94-36.063L2755.3,507.909Z"/>
          <path id="Polygon_43" data-name="Polygon 43" class="cls-34" d="M2721.39,987.178l-163.15-215.3,163.46-210.8Z"/>
          <path id="Polygon_40" data-name="Polygon 40" class="cls-34" d="M3914.63,494.707L3616.81,195.468l262.04,25.411Z"/>
          <path id="Polygon_41" data-name="Polygon 41" class="cls-35" d="M3539.79,169.883l-420.17-1.026L3327.19,0.1Z"/>
          <path id="Polygon_42" data-name="Polygon 42" class="cls-34" d="M3123.37,1379.45l423.76-1.53-211.28,170.39Z"/>
        </g>
      </g>
      <g id="RockLeft">
        <path id="Polygon_34_copy" data-name="Polygon 34 copy" class="cls-32" d="M3931.77,986.7l0.58-429.16L3328.62,769.464Z"/>
        <path id="Polygon_35_copy" data-name="Polygon 35 copy" class="cls-33" d="M3055.6,1341.6l276.26-576.52-578.35,273.2Z"/>
        <path id="Polygon_36_copy" data-name="Polygon 36 copy" class="cls-34" d="M3331.1,769.051l575.8,270.079-303.7,293.85Z"/>
        <path id="Polygon_33_copy" data-name="Polygon 33 copy" class="cls-35" d="M3118.03,186.425l423.34,0.216-209.47,582.1Z"/>
        <g id="Crumbs-2" data-name="Crumbs">
          <path id="Polygon_42_copy" data-name="Polygon 42 copy" class="cls-27" d="M3945.56,985.256l-2.65-423.078,171.87,212.753Z"/>
          <path id="Polygon_42_copy_2" data-name="Polygon 42 copy 2" class="cls-33" d="M2774.78,1319.66l-28.14-272.69,297.08,298.17Z"/>
          <path id="Polygon_42_copy_3" data-name="Polygon 42 copy 3" class="cls-33" d="M3612.51,1342.21l298-291.51-31.43,265.74Z"/>
        </g>
      </g>
    </g>
  </g>
</svg>
