<svg id="Frame3" xmlns="http://www.w3.org/2000/svg" width="3758" height="1790" viewBox="0 0 3758 1790">
  <defs>
    <style>
      .cls-1 {
        fill: #b55243;
      }

      .cls-1, .cls-10, .cls-11, .cls-12, .cls-13, .cls-14, .cls-15, .cls-16, .cls-17, .cls-18, .cls-19, .cls-2, .cls-20, .cls-21, .cls-22, .cls-23, .cls-24, .cls-25, .cls-26, .cls-27, .cls-28, .cls-29, .cls-3, .cls-30, .cls-31, .cls-32, .cls-33, .cls-34, .cls-35, .cls-4, .cls-5, .cls-6, .cls-7, .cls-8, .cls-9 {
        fill-rule: evenodd;
      }

      .cls-2 {
        fill: #b7413f;
      }

      .cls-3 {
        fill: #dc6a57;
      }

      .cls-4 {
        fill: #e28b5e;
      }

      .cls-5 {
        fill: #e2c396;
      }

      .cls-6 {
        fill: #ca9a79;
      }

      .cls-7 {
        fill: #aca88f;
      }

      .cls-8 {
        fill: #b7b39c;
      }

      .cls-9 {
        fill: #afab96;
      }

      .cls-10 {
        fill: #a69f8e;
      }

      .cls-11 {
        fill: #9a9682;
      }

      .cls-12 {
        fill: #858174;
      }

      .cls-13 {
        fill: #70685d;
      }

      .cls-14 {
        fill: #6d5d54;
      }

      .cls-15 {
        fill: #71514e;
      }

      .cls-16 {
        fill: #904b4c;
      }

      .cls-17 {
        fill: #994b49;
      }

      .cls-18 {
        fill: #5f2e37;
      }

      .cls-19 {
        fill: #663939;
      }

      .cls-20 {
        fill: #6f4b47;
      }

      .cls-21 {
        fill: #5a403a;
      }

      .cls-22 {
        fill: #5a3f3a;
      }

      .cls-23 {
        fill: #7d5648;
      }

      .cls-24 {
        fill: #865d4b;
      }

      .cls-25 {
        fill: #563d38;
      }

      .cls-26 {
        fill: #523839;
      }

      .cls-27 {
        fill: #4e3334;
      }

      .cls-28 {
        fill: #523632;
      }

      .cls-29 {
        fill: #976957;
      }

      .cls-30 {
        fill: #846850;
      }

      .cls-31 {
        fill: #a48365;
      }

      .cls-32 {
        fill: #553935;
      }

      .cls-33 {
        fill: #7c5950;
      }

      .cls-34 {
        fill: #a87d6e;
      }

      .cls-35 {
        fill: #936c5f;
      }
    </style>
  </defs>
  <g id="Poly">
    <g id="EarRight">
      <path id="Polygon_4" data-name="Polygon 4" class="cls-1" d="M2361.02,587.105L2401.6,1073.1,2221.06,881.18Z"/>
      <path id="Polygon_5" data-name="Polygon 5" class="cls-2" d="M2398.44,1073l-36.89-481.656,176.77-25.739Z"/>
      <path id="Polygon_6" data-name="Polygon 6" class="cls-3" d="M2524.08,565.252l286.83,573.618-414.13-73.97Z"/>
      <path id="Polygon_7" data-name="Polygon 7" class="cls-4" d="M2524.87,566l880.21,566.382-606.4,8.2Z"/>
      <path id="Polygon_8" data-name="Polygon 8" class="cls-5" d="M3404.74,1133.83L2519.56,568.846l119.59-20.857Z"/>
      <path id="Polygon_9" data-name="Polygon 9" class="cls-6" d="M2325.91,285.77l318.33,266-309.47,49.308Z"/>
    </g>
    <path id="Polygon_10" data-name="Polygon 10" class="cls-7" d="M1974,617.646l371.61-317.861,76.97,287.782Z"/>
    <path id="Polygon_11" data-name="Polygon 11" class="cls-7" d="M1973.82,620.215L2177.88,126.2l172.05,181.486Z"/>
    <path id="Polygon_12" data-name="Polygon 12" class="cls-8" d="M1979.06,616.508L1938.65,24.075l244.4,105.962Z"/>
    <path id="Polygon_13" data-name="Polygon 13" class="cls-9" d="M1977.39,600.134L1597.98,0.969l346.48,24.239Z"/>
    <path id="Polygon_14" data-name="Polygon 14" class="cls-10" d="M1597.19-.622l384.05,599.438-370.06-5.685Z"/>
    <path id="Polygon_15" data-name="Polygon 15" class="cls-11" d="M1615.38,598L1354.22,98.071,1600.27,0.621Z"/>
    <path id="Polygon_16" data-name="Polygon 16" class="cls-12" d="M1620.36,602.437l-438.84-295.5L1365.97,91.532Z"/>
    <path id="Polygon_17" data-name="Polygon 17" class="cls-13" d="M1614.64,593.648l-500.46-5.111,74.66-291.559Z"/>
    <g id="EarLeft">
      <path id="Polygon_18" data-name="Polygon 18" class="cls-14" d="M1206.3,282.871l7.66,311.955L896.122,568.557Z"/>
      <path id="Polygon_19" data-name="Polygon 19" class="cls-15" d="M199.334,1135.66l704.1-573.655,125.456,9.954Z"/>
      <path id="Polygon_20" data-name="Polygon 20" class="cls-16" d="M198.82,1136.23l823.7-563.855L775.456,1153.32Z"/>
      <path id="Polygon_21" data-name="Polygon 21" class="cls-17" d="M1019.28,571.574L1170.91,1058.8,760,1151.88Z"/>
      <path id="Polygon_22" data-name="Polygon 22" class="cls-18" d="M1162.15,1064.6l-152.8-493.317,170.93,9.875Z"/>
      <path id="Polygon_23" data-name="Polygon 23" class="cls-19" d="M1157.75,1066.37l19.3-483.721,154.26,274.828Z"/>
      <path id="Polygon_24" data-name="Polygon 24" class="cls-20" d="M1158.31,1059.73l174.6-209.878,41.7,73.883Z"/>
    </g>
    <path id="Polygon_25" data-name="Polygon 25" class="cls-21" d="M1984.31,597l-802.8,368.733L1080.7,576.2Z"/>
    <path id="Polygon_26" data-name="Polygon 26" class="cls-22" d="M1176.39,960L1979,595.7l25.43,361.877Z"/>
    <path id="Polygon_3" data-name="Polygon 3" class="cls-23" d="M2458.56,577.126L2386,914.5l-408.99,45.059Z"/>
    <path id="Polygon_27" data-name="Polygon 27" class="cls-24" d="M2462.41,579.779L1994,960.832l-16.68-350.3Z"/>
    <path id="Polygon_28" data-name="Polygon 28" class="cls-25" d="M1180.22,958.779L1071.28,1599.61,817.535,1272.62Z"/>
    <path id="Polygon_29" data-name="Polygon 29" class="cls-26" d="M2091.61,1676.39L1036,1723l139.22-768.221Z"/>
    <path id="Polygon_30" data-name="Polygon 30" class="cls-27" d="M2088.47,1679L1172.31,957.779,2021,946.305Z"/>
    <path id="Polygon_31" data-name="Polygon 31" class="cls-28" d="M2018,941.779l541.14,687.911-474.75,51.84Z"/>
    <path id="Polygon_32" data-name="Polygon 32" class="cls-29" d="M2020.78,947.084l351.61-42.221L2553.92,1630Z"/>
    <g id="LeftArm">
      <path id="Polygon_1" data-name="Polygon 1" class="cls-30" d="M2479.38,951.849L2288,1379l83-473Z"/>
      <path id="Polygon_2" data-name="Polygon 2" class="cls-31" d="M2473.94,952.971l292.98,391.949-478.07,32.93Z"/>
    </g>
    <g id="Rock">
      <path id="Polygon_33" data-name="Polygon 33" class="cls-32" d="M3554.49,1478.14l-199.97,27.98,21.09-153.08Z"/>
      <path id="Polygon_34" data-name="Polygon 34" class="cls-33" d="M3553.02,1477.89l-179.91-120.83,187.46-80.35Z"/>
      <path id="Polygon_35" data-name="Polygon 35" class="cls-34" d="M3553.34,1479.93l-0.61-202.31,127.82,45.8Z"/>
      <path id="Polygon_36" data-name="Polygon 36" class="cls-35" d="M3551.09,1478.81l123.19-160.17,70.98,123.16Z"/>
    </g>
  </g>
</svg>
