<svg id="Frame1" xmlns="http://www.w3.org/2000/svg" width="4115" height="3355" viewBox="0 0 4115 3355">
  <defs>
    <style>
      .cls-1 {
        fill: #b55243;
      }

      .cls-1, .cls-10, .cls-11, .cls-12, .cls-13, .cls-14, .cls-15, .cls-16, .cls-17, .cls-18, .cls-19, .cls-2, .cls-20, .cls-21, .cls-22, .cls-23, .cls-24, .cls-25, .cls-26, .cls-27, .cls-28, .cls-29, .cls-3, .cls-30, .cls-31, .cls-32, .cls-33, .cls-34, .cls-35, .cls-4, .cls-5, .cls-6, .cls-7, .cls-8, .cls-9 {
        fill-rule: evenodd;
      }

      .cls-2 {
        fill: #b7413f;
      }

      .cls-3 {
        fill: #dc6a57;
      }

      .cls-4 {
        fill: #e28b5e;
      }

      .cls-5 {
        fill: #e2c396;
      }

      .cls-6 {
        fill: #ca9a79;
      }

      .cls-7 {
        fill: #aca88f;
      }

      .cls-8 {
        fill: #b7b39c;
      }

      .cls-9 {
        fill: #afab96;
      }

      .cls-10 {
        fill: #a69f8e;
      }

      .cls-11 {
        fill: #9a9682;
      }

      .cls-12 {
        fill: #858174;
      }

      .cls-13 {
        fill: #70685d;
      }

      .cls-14 {
        fill: #6d5d54;
      }

      .cls-15 {
        fill: #71514e;
      }

      .cls-16 {
        fill: #904b4c;
      }

      .cls-17 {
        fill: #994b49;
      }

      .cls-18 {
        fill: #5f2e37;
      }

      .cls-19 {
        fill: #663939;
      }

      .cls-20 {
        fill: #6f4b47;
      }

      .cls-21 {
        fill: #5a403a;
      }

      .cls-22 {
        fill: #5a3f3a;
      }

      .cls-23 {
        fill: #846850;
      }

      .cls-24 {
        fill: #a48365;
      }

      .cls-25 {
        fill: #7d5648;
      }

      .cls-26 {
        fill: #865d4b;
      }

      .cls-27 {
        fill: #563d38;
      }

      .cls-28 {
        fill: #523839;
      }

      .cls-29 {
        fill: #4e3334;
      }

      .cls-30 {
        fill: #523632;
      }

      .cls-31 {
        fill: #976957;
      }

      .cls-32 {
        fill: #7c5950;
      }

      .cls-33 {
        fill: #a87d6e;
      }

      .cls-34 {
        fill: #936c5f;
      }

      .cls-35 {
        fill: #553935;
      }
    </style>
  </defs>
  <g id="Poly">
    <g id="EarLeft">
      <path id="Polygon_4" data-name="Polygon 4" class="cls-1" d="M2452,1724l152.1,463.37L2384,2042.5Z"/>
      <path id="Polygon_5" data-name="Polygon 5" class="cls-2" d="M2601,2188l-147.5-460,166-66Z"/>
      <path id="Polygon_6" data-name="Polygon 6" class="cls-3" d="M2605.57,1664.96L3017.5,2156.5l-420,24Z"/>
      <path id="Polygon_7" data-name="Polygon 7" class="cls-4" d="M2606.5,1665.5l987.5,347L3006,2161Z"/>
      <path id="Polygon_8" data-name="Polygon 8" class="cls-5" d="M3594,2014l-992-344.5,111.5-48Z"/>
      <path id="Polygon_9" data-name="Polygon 9" class="cls-6" d="M2348.03,1439l371.29,185L2429.7,1743.68Z"/>
    </g>
    <path id="Polygon_10" data-name="Polygon 10" class="cls-7" d="M1976,1746.65l371.61-317.87,76.97,287.79Z"/>
    <path id="Polygon_11" data-name="Polygon 11" class="cls-7" d="M1975.82,1749.22l204.06-494.02,172.05,181.48Z"/>
    <path id="Polygon_12" data-name="Polygon 12" class="cls-8" d="M1981.06,1745.51l-40.41-592.44,244.4,105.97Z"/>
    <path id="Polygon_13" data-name="Polygon 13" class="cls-9" d="M1979.39,1729.13l-379.41-599.16,346.48,24.24Z"/>
    <path id="Polygon_14" data-name="Polygon 14" class="cls-10" d="M1599.19,1128.38l384.05,599.44-370.06-5.69Z"/>
    <path id="Polygon_15" data-name="Polygon 15" class="cls-11" d="M1617.38,1727l-261.16-499.93,246.05-97.45Z"/>
    <path id="Polygon_16" data-name="Polygon 16" class="cls-12" d="M1622.36,1731.44l-438.84-295.5,184.45-215.41Z"/>
    <path id="Polygon_17" data-name="Polygon 17" class="cls-13" d="M1616.64,1722.65l-500.46-5.11,74.66-291.56Z"/>
    <g id="EarRight">
      <path id="Polygon_18" data-name="Polygon 18" class="cls-14" d="M1192.85,1425.52l-72.82,303.43L819.638,1621.84Z"/>
      <path id="Polygon_19" data-name="Polygon 19" class="cls-15" d="M0.459,1990.71l827.93-373.32,118.676,41.88Z"/>
      <path id="Polygon_20" data-name="Polygon 20" class="cls-16" d="M-0.186,1991.13L940.8,1658.03,552.667,2155.92Z"/>
      <path id="Polygon_21" data-name="Polygon 21" class="cls-17" d="M937.878,1656.42l21.249,509.83-421.022-15.71Z"/>
      <path id="Polygon_22" data-name="Polygon 22" class="cls-18" d="M949.167,2169.61l-20.808-516.02L1091,1707.08Z"/>
      <path id="Polygon_23" data-name="Polygon 23" class="cls-19" d="M944.466,2170.19l143.034-462.5,78.4,305.26Z"/>
      <path id="Polygon_24" data-name="Polygon 24" class="cls-20" d="M946.716,2163.91l222.694-157.92,21.3,82.12Z"/>
    </g>
    <path id="Polygon_25" data-name="Polygon 25" class="cls-21" d="M1986.31,1726l-802.8,368.73L1082.7,1705.2Z"/>
    <path id="Polygon_26" data-name="Polygon 26" class="cls-22" d="M1178.39,2089L1981,1724.69l25.43,361.88Z"/>
    <path id="Polygon_1" data-name="Polygon 1" class="cls-23" d="M2729,2353l-214,246-142-564Z"/>
    <path id="Polygon_2" data-name="Polygon 2" class="cls-24" d="M2370.56,2034.12l405.5,267.06-47.67,56.52Z"/>
    <path id="Polygon_3" data-name="Polygon 3" class="cls-25" d="M2460.56,1706.13L2388,2043.5l-408.99,45.06Z"/>
    <path id="Polygon_27" data-name="Polygon 27" class="cls-26" d="M2464.41,1708.78L1996,2089.83l-16.68-350.3Z"/>
    <path id="Polygon_28" data-name="Polygon 28" class="cls-27" d="M1182.22,2087.78l-108.94,640.83L819.535,2401.62Z"/>
    <path id="Polygon_29" data-name="Polygon 29" class="cls-28" d="M2093.61,2805.39L1038,2852l139.22-768.22Z"/>
    <path id="Polygon_30" data-name="Polygon 30" class="cls-29" d="M2090.47,2808l-916.16-721.22L2023,2075.31Z"/>
    <path id="Polygon_31" data-name="Polygon 31" class="cls-30" d="M2020,2070.78l541.14,687.91-474.75,51.84Z"/>
    <path id="Polygon_32" data-name="Polygon 32" class="cls-31" d="M2022.78,2076.08l351.61-42.22L2555.92,2759Z"/>
    <g id="Rocks">
      <path id="Polygon_34" data-name="Polygon 34" class="cls-32" d="M3560.27,2921.63l-163.5-149.23,201.51-52.86Z"/>
      <path id="Polygon_35" data-name="Polygon 35" class="cls-33" d="M3560.28,2923.74l29.94-204.47,122.2,65.57Z"/>
      <path id="Polygon_36" data-name="Polygon 36" class="cls-34" d="M3558.18,2922.26l148.63-143.19,53.11,135.13Z"/>
      <path id="Polygon_33" data-name="Polygon 33" class="cls-35" d="M3561.72,2922.1l-206.23-1.92,44.42-151.46Z"/>
      <path id="Polygon_34_copy" data-name="Polygon 34 copy" class="cls-32" d="M1009.77,3249.7l190.58-212.11-234.886-75.13Z"/>
      <path id="Polygon_35_copy" data-name="Polygon 35 copy" class="cls-33" d="M1009.75,3252.7l-34.89-290.62-142.45,93.2Z"/>
      <path id="Polygon_36_copy" data-name="Polygon 36 copy" class="cls-34" d="M1012.21,3250.6L838.947,3047.08l-61.9,192.06Z"/>
      <path id="Polygon_33_copy" data-name="Polygon 33 copy" class="cls-35" d="M1008.08,3250.37l240.39-2.73-51.77-215.28Z"/>
      <path id="Polygon_39" data-name="Polygon 39" class="cls-35" d="M3343.17,2933.33l-15.37,55.11-40.04-40.87Z"/>
      <path id="Polygon_43" data-name="Polygon 43" class="cls-34" d="M3534.86,2967.52l-35.55-15.18,30.92-23.2Z"/>
      <path id="Polygon_40" data-name="Polygon 40" class="cls-34" d="M3500.56,3054.99l-55.28,3.54,24.57-49.65Z"/>
      <path id="Polygon_41" data-name="Polygon 41" class="cls-35" d="M3224.25,3010.82l-25.1-25.96,35.04-8.76Z"/>
      <path id="Polygon_42" data-name="Polygon 42" class="cls-34" d="M3350.97,3006.39l46.16-6.47-21.28,27.86Z"/>
      <path id="Polygon_42_copy" data-name="Polygon 42 copy" class="cls-29" d="M1272.09,3307.63l2.82-39.25,36.4,21.82Z"/>
      <path id="Polygon_42_copy_2" data-name="Polygon 42 copy 2" class="cls-33" d="M1178.98,3279.19l36.39-14.96-3.31,42.31Z"/>
      <path id="Polygon_42_copy_3" data-name="Polygon 42 copy 3" class="cls-33" d="M1272.04,3339.53l15.74-8.3-1.44,23.48Z"/>
    </g>
  </g>
</svg>
