<svg xmlns="http://www.w3.org/2000/svg" width="84" height="83" viewBox="0 0 84 83">
  <metadata><?xpacket begin="﻿" id="W5M0MpCehiHzreSzNTczkc9d"?>
<x:xmpmeta xmlns:x="adobe:ns:meta/" x:xmptk="Adobe XMP Core 5.6-c138 79.159824, 2016/09/14-01:09:01        ">
   <rdf:RDF xmlns:rdf="http://www.w3.org/1999/02/22-rdf-syntax-ns#">
      <rdf:Description rdf:about=""/>
   </rdf:RDF>
</x:xmpmeta>
                                                                                                    
                                                                                                    
                                                                                                    
                                                                                                    
                                                                                                    
                                                                                                    
                                                                                                    
                                                                                                    
                                                                                                    
                                                                                                    
                                                                                                    
                                                                                                    
                                                                                                    
                                                                                                    
                                                                                                    
                                                                                                    
                                                                                                    
                                                                                                    
                                                                                                    
                                                                                                    
                           
<?xpacket end="w"?></metadata>
<defs>
    <style>
      .cls-1 {
        fill: #2294e5;
        fill-rule: evenodd;
      }
    </style>
  </defs>
  <path id="AgileIcon" class="cls-1" d="M65.991,69V65l18,8.88-18,8.9V78H38V67.78c0.5,0.035.994,0.076,1.5,0.076A21.356,21.356,0,1,0,19.285,39.685l3.008-.559L16.853,58.449,4.816,42.375l3.64-.677a31.264,31.264,0,0,1,5.478-13.444,14.488,14.488,0,1,1,14.7-24.068l2.294-1.545L31.2,7.583c0.077,0.142.174,0.272,0.246,0.417H31.225l0.413,7.372L20,10l2.97-2H22V8.187a7.17,7.17,0,0,0-3.5-.938,7.25,7.25,0,0,0,0,14.5,6.877,6.877,0,0,0,2.1-.342A31.41,31.41,0,0,1,61.413,69h4.578ZM17,69H33v9H2a2,2,0,0,1-2-2V71a2,2,0,0,1,2-2H17Z"/>
</svg>
