<svg xmlns="http://www.w3.org/2000/svg" width="82" height="82" viewBox="0 0 82 82">
  <metadata><?xpacket begin="﻿" id="W5M0MpCehiHzreSzNTczkc9d"?>
<x:xmpmeta xmlns:x="adobe:ns:meta/" x:xmptk="Adobe XMP Core 5.6-c138 79.159824, 2016/09/14-01:09:01        ">
   <rdf:RDF xmlns:rdf="http://www.w3.org/1999/02/22-rdf-syntax-ns#">
      <rdf:Description rdf:about=""/>
   </rdf:RDF>
</x:xmpmeta>
                                                                                                    
                                                                                                    
                                                                                                    
                                                                                                    
                                                                                                    
                                                                                                    
                                                                                                    
                                                                                                    
                                                                                                    
                                                                                                    
                                                                                                    
                                                                                                    
                                                                                                    
                                                                                                    
                                                                                                    
                                                                                                    
                                                                                                    
                                                                                                    
                                                                                                    
                                                                                                    
                           
<?xpacket end="w"?></metadata>
<defs>
    <style>
      .cls-1 {
        fill: #ffb901;
        fill-rule: evenodd;
      }
    </style>
  </defs>
  <path id="Brush" class="cls-1" d="M81.238,30.167L63.489,48.125l-2.068,2.092L55.393,44.2,62.7,36.9a25.863,25.863,0,0,0-5.061,0c-3.052.264-2.716,0.423-1.687-2.245s4.172-5.42,5.061-7.3,1.19-3.6-1.687-2.807-4.562,1.7-7.311,2.245-3.734-1.112-3.374-2.807,1.551-2.772,1.687-4.49-1.1-4.559-2.812-2.807-9.56,9.542-9.56,9.542l-5.888-5.876,1.588-1.607L51.409,0.8a3.016,3.016,0,0,1,4.246.17L81.01,25.931A3,3,0,0,1,81.238,30.167ZM56.673,55.021l-6.915,7c-3.7,3.743-10.036,3.49-14.155-.565l-3.816-3.757c-2.533.131-5.9,2.4-7.324,5.59C22.931,66.7,20.937,75.907,9.841,81.246,6.468,82.869-5.064,83.17,2.531,68.336,6.6,60.38,15.221,58.806,19.4,56.549c3.747-2.023,4.682-4.365,4.573-6.547l-3.285-3.235c-4.118-4.055-4.458-10.376-.759-14.119l7.116-7.2ZM9.841,66.652a4.49,4.49,0,1,0,4.5,4.49A4.495,4.495,0,0,0,9.841,66.652Z"/>
</svg>
