<svg id="Frame1" xmlns="http://www.w3.org/2000/svg" width="4423" height="3296" viewBox="0 0 4423 3296">
  <defs>
    <style>
      .cls-1 {
        fill: #ffd2a5;
      }

      .cls-1, .cls-10, .cls-11, .cls-12, .cls-13, .cls-14, .cls-15, .cls-16, .cls-17, .cls-18, .cls-19, .cls-2, .cls-20, .cls-21, .cls-22, .cls-23, .cls-24, .cls-25, .cls-26, .cls-27, .cls-28, .cls-29, .cls-3, .cls-30, .cls-31, .cls-32, .cls-33, .cls-34, .cls-35, .cls-36, .cls-37, .cls-38, .cls-39, .cls-4, .cls-40, .cls-41, .cls-42, .cls-43, .cls-44, .cls-45, .cls-46, .cls-47, .cls-48, .cls-49, .cls-5, .cls-50, .cls-51, .cls-52, .cls-53, .cls-54, .cls-55, .cls-56, .cls-57, .cls-6, .cls-7, .cls-8, .cls-9 {
        fill-rule: evenodd;
      }

      .cls-2 {
        fill: #ffc993;
      }

      .cls-3 {
        fill: #ffcf9f;
      }

      .cls-4 {
        fill: #ffc290;
      }

      .cls-5 {
        fill: #ffdeb1;
      }

      .cls-6 {
        fill: #febc7b;
      }

      .cls-7 {
        fill: #ffd8a6;
      }

      .cls-8 {
        fill: #ffbd87;
      }

      .cls-9 {
        fill: #ffc38b;
      }

      .cls-10 {
        fill: #ffb77b;
      }

      .cls-11 {
        fill: #f5a061;
      }

      .cls-12 {
        fill: #ff273a;
      }

      .cls-13 {
        fill: #ff335f;
      }

      .cls-14 {
        fill: #ff707f;
      }

      .cls-15 {
        fill: #ffd49f;
      }

      .cls-16 {
        fill: #ffb47d;
      }

      .cls-17 {
        fill: #ffd5a0;
      }

      .cls-18 {
        fill: #ffaf6f;
      }

      .cls-19 {
        fill: #ffa664;
      }

      .cls-20 {
        fill: #ffc28b;
      }

      .cls-21 {
        fill: #ffd39f;
      }

      .cls-22 {
        fill: #f6a566;
      }

      .cls-23 {
        fill: #ffb47c;
      }

      .cls-24 {
        fill: #ffca92;
      }

      .cls-25 {
        fill: #ffbc81;
      }

      .cls-26 {
        fill: #fdaf73;
      }

      .cls-27 {
        fill: #ffc48b;
      }

      .cls-28 {
        fill: #f8ac78;
      }

      .cls-29 {
        fill: #f2975b;
      }

      .cls-30 {
        fill: #e99358;
      }

      .cls-31 {
        fill: #259be9;
      }

      .cls-32 {
        fill: #68d1ff;
      }

      .cls-33 {
        fill: #4ecafa;
      }

      .cls-34 {
        fill: #2aa4eb;
      }

      .cls-35 {
        fill: #86c9fc;
      }

      .cls-36 {
        fill: #faa769;
      }

      .cls-37 {
        fill: #ffe1b2;
      }

      .cls-38 {
        fill: #f9d7a2;
      }

      .cls-39 {
        fill: #f5a161;
      }

      .cls-40 {
        fill: #ffe0b2;
      }

      .cls-41 {
        fill: #969595;
      }

      .cls-42 {
        fill: #9b9a99;
      }

      .cls-43 {
        fill: #8b8b8b;
      }

      .cls-44 {
        fill: #a2a2a2;
      }

      .cls-45 {
        fill: #b2b2b2;
      }

      .cls-46 {
        fill: #a3a3a3;
      }

      .cls-47 {
        fill: #c3c3c3;
      }

      .cls-48 {
        fill: #b9b7b7;
      }

      .cls-49 {
        fill: #ababab;
      }

      .cls-50 {
        fill: #a1a1a1;
      }

      .cls-51 {
        fill: #b9b9b9;
      }

      .cls-52 {
        fill: gray;
      }

      .cls-53 {
        fill: #949494;
      }

      .cls-54 {
        fill: #d4d4d4;
      }

      .cls-55 {
        fill: #dbdbdb;
      }

      .cls-56 {
        fill: #404040;
      }

      .cls-57 {
        fill: #4a4a4a;
      }
    </style>
  </defs>
  <g id="Face">
    <path id="Polygon_1" data-name="Polygon 1" class="cls-1" d="M3966.93,560l-55.28,336.737L3546.73,446.663Z"/>
    <path id="Polygon_2" data-name="Polygon 2" class="cls-2" d="M3085.21,1257.63l479.13-807.87L3917.39,884.9Z"/>
    <path id="Polygon_3" data-name="Polygon 3" class="cls-3" d="M3092.38,1257.34l85.94-1098.894,399.46,292.2Z"/>
    <path id="Polygon_4" data-name="Polygon 4" class="cls-4" d="M3095.83,1264.07L2373.1,546.705l812.66-381.691Z"/>
  </g>
  <g id="Ear">
    <path id="Polygon_5" data-name="Polygon 5" class="cls-5" d="M2183.32,647.273L2409.56,30.487l797.01,146.262Z"/>
    <path id="Polygon_55" data-name="Polygon 55" class="cls-6" d="M3385.46,0.854l138.68,412.739L3220.11,190.32Z"/>
    <path id="Polygon_6" data-name="Polygon 6" class="cls-7" d="M3380.91,6.052L3233.6,194.083,2968.85,136.13Z"/>
  </g>
  <g id="Neck">
    <path id="Polygon_7" data-name="Polygon 7" class="cls-8" d="M3098.87,1249.54l-677.66-41.4-34.31-652.7Z"/>
    <path id="Polygon_8" data-name="Polygon 8" class="cls-9" d="M2421.7,1190.28l680.49,53.16-91.62,343.67Z"/>
    <path id="Polygon_9" data-name="Polygon 9" class="cls-10" d="M3391.74,1668.14l-393.48-89.06,91.22-337.82Z"/>
    <path id="Polygon_10" data-name="Polygon 10" class="cls-11" d="M3084.69,1253.96l354.95-164.89-53.84,580.45Z"/>
  </g>
  <g id="Colar">
    <path id="Polygon_11" data-name="Polygon 11" class="cls-12" d="M3508.29,1631.29l-136.58,228.64,17.23-362.49Z"/>
    <path id="Polygon_12" data-name="Polygon 12" class="cls-13" d="M3000.82,1577.47l388.85,86.67-10.75,206.58Z"/>
    <path id="Polygon_13" data-name="Polygon 13" class="cls-14" d="M3378.92,1845.18L2286.9,1423.93l134.7-262.4Z"/>
  </g>
  <g id="LeftLeg">
    <path id="Polygon_17" data-name="Polygon 17" class="cls-15" d="M2751.89,2534.88l302.22-122.96,144.93,116.58Z"/>
    <path id="Polygon_18" data-name="Polygon 18" class="cls-16" d="M2797.17,2858.32l-8.68-326.88,413.37-9.8Z"/>
  </g>
  <g id="Chest">
    <path id="Polygon_14" data-name="Polygon 14" class="cls-17" d="M2287.56,1405.6l1093.82,438.84L2814.1,2233.16Z"/>
    <path id="Polygon_15" data-name="Polygon 15" class="cls-18" d="M3385.47,1839.34l-333.18,581.05-250.44-199.55Z"/>
    <path id="Polygon_16" data-name="Polygon 16" class="cls-19" d="M2751.2,2541.42l55.37-324.98,250.44,195.83Z"/>
    <path id="Polygon_19" data-name="Polygon 19" class="cls-20" d="M2316.4,2166.73l-22.48-767.58,518.11,825.12Z"/>
  </g>
  <g id="RightLeg">
    <path id="Polygon_20" data-name="Polygon 20" class="cls-21" d="M2308.4,2738.94l17.41-588.58,488.94,63.24Z"/>
    <path id="Polygon_21" data-name="Polygon 21" class="cls-22" d="M2664.83,3171.64l-356.47-446.3,500.88-506.84Z"/>
    <path id="Polygon_22" data-name="Polygon 22" class="cls-23" d="M2725.43,2716.45l177.63,452.43-253.36-4.51Z"/>
  </g>
  <g id="UpperBody">
    <path id="Polygon_23" data-name="Polygon 23" class="cls-24" d="M2331.92,2160.1l-261.13-678.4,234.15-80.09Z"/>
    <path id="Polygon_24" data-name="Polygon 24" class="cls-25" d="M2078.17,1482.66l258.19,673.87-90.04,193.3Z"/>
    <path id="Polygon_25" data-name="Polygon 25" class="cls-26" d="M2230.54,2297.25l107.98-147.79-26.4,456.72Z"/>
    <path id="Polygon_26" data-name="Polygon 26" class="cls-27" d="M2318.07,2604.32l-421.88-607.64,182.84-517.59Z"/>
    <path id="Polygon_27" data-name="Polygon 27" class="cls-28" d="M2322.24,2602.13l-998.38-244.48,578.66-376.16Z"/>
    <path id="Polygon_28" data-name="Polygon 28" class="cls-29" d="M2319.36,2596.2l-853.08,21.18-78.35-294.9Z"/>
    <path id="Polygon_29" data-name="Polygon 29" class="cls-30" d="M1392.1,2322.88l87.07,291.93-303.66-1.85Z"/>
  </g>
  <g id="Strap">
    <path id="Polygon_30" data-name="Polygon 30" class="cls-31" d="M2133.7,1318.78l159.71,91.27-233.6,84.99Z"/>
    <path id="Polygon_31" data-name="Polygon 31" class="cls-32" d="M1903.75,1989.86L1787.2,1493.93l355.58-175.27Z"/>
    <path id="Polygon_32" data-name="Polygon 32" class="cls-33" d="M1791.68,1488.49l121.41,495.13-274.31,9.01Z"/>
    <path id="Polygon_33" data-name="Polygon 33" class="cls-34" d="M1392.52,2329.04l238.94-347.82,276.68-2.76Z"/>
    <path id="Polygon_34" data-name="Polygon 34" class="cls-35" d="M1659.01,1969.16l-495.25,670-46.56-353.47Z"/>
  </g>
  <g id="Butt">
    <path id="Polygon_35" data-name="Polygon 35" class="cls-36" d="M1118.84,2291.17l676.75-807.32-142.61,495.86Z"/>
    <path id="Polygon_36" data-name="Polygon 36" class="cls-9" d="M1793.57,1490.78l-668.41,808.6L459.774,2030.73Z"/>
    <path id="Polygon_37" data-name="Polygon 37" class="cls-37" d="M1794.47,1497.18L464.126,2033.33l426.968-530.88Z"/>
    <path id="Polygon_38" data-name="Polygon 38" class="cls-38" d="M897.437,1503.82l-436.4,541.92,95.024-308.25Z"/>
    <path id="Polygon_39" data-name="Polygon 39" class="cls-39" d="M458.084,2018.3l168.338,71.83-113.361,83.8Z"/>
  </g>
  <g id="Tail">
    <path id="Polygon_40" data-name="Polygon 40" class="cls-37" d="M901.684,856.15L677.141,1675.88l-111.779,66.8Z"/>
    <path id="Polygon_41" data-name="Polygon 41" class="cls-20" d="M572.288,1729.37L777.68,940.337l134.7-78.345Z"/>
    <path id="Polygon_42" data-name="Polygon 42" class="cls-40" d="M802.908,417.187L912.949,867.549,779.035,970.956Z"/>
  </g>
  <g id="LeftTire">
    <path id="Polygon_49" data-name="Polygon 49" class="cls-41" d="M1515.22,2731.34l-240.09,439.53-215.97-407.71Z"/>
    <path id="Polygon_50" data-name="Polygon 50" class="cls-42" d="M1507.47,2737.05l-434.4,29.64,76.37-179.55Z"/>
    <path id="Polygon_51" data-name="Polygon 51" class="cls-43" d="M1510.31,2747.42l-336.13-135.08,749.82-8.62Z"/>
    <path id="Polygon_52" data-name="Polygon 52" class="cls-44" d="M1496.54,2744.17l421.36-142.8,89.09,140.97Z"/>
    <path id="Polygon_53" data-name="Polygon 53" class="cls-45" d="M1500.77,2735.85l498.71-.09-244.35,432.21Z"/>
    <path id="Polygon_54" data-name="Polygon 54" class="cls-46" d="M1280.31,3164.7l229.56-450.36,249.85,443.17Z"/>
  </g>
  <g id="RightTire">
    <path id="Polygon_43" data-name="Polygon 43" class="cls-47" d="M682.813,2658.45l-78.619-571.14,525.886,196.26Z"/>
    <path id="Polygon_44" data-name="Polygon 44" class="cls-48" d="M689.1,2654.47l-531.7-209.01,460.165-361.69Z"/>
    <path id="Polygon_45" data-name="Polygon 45" class="cls-49" d="M687.194,2645.16L252.535,2999.05l-84.982-570.26Z"/>
    <path id="Polygon_46" data-name="Polygon 46" class="cls-50" d="M684.616,2640.97l95.009,556L242.3,2990.95Z"/>
    <path id="Polygon_47" data-name="Polygon 47" class="cls-46" d="M680.337,2635.45l544.023,205.63L769.884,3199.06Z"/>
    <path id="Polygon_48" data-name="Polygon 48" class="cls-51" d="M680.751,2642.39l444.619-355.95,101.03,557.52Z"/>
  </g>
  <g id="Laptop">
    <path id="Polygon_56" data-name="Polygon 56" class="cls-51" d="M3013,3175l740,80-1.91-75.9Z"/>
    <path id="Polygon_57" data-name="Polygon 57" class="cls-43" d="M3753,3255l-740-80,1.91,75.9Z"/>
    <path id="Polygon_58" data-name="Polygon 58" class="cls-49" d="M4316.32,2744.7l-567.54,436.2,1.25,74.04Z"/>
    <path id="Polygon_59" data-name="Polygon 59" class="cls-51" d="M3747.77,3184.95l567.55-436.2-31.25-38.04Z"/>
    <path id="Polygon_60" data-name="Polygon 60" class="cls-52" d="M4311.57,2749.21L3750.2,3255l186.84-110.41Z"/>
    <path id="Polygon_61" data-name="Polygon 61" class="cls-53" d="M3946.91,3133.73L4424,2716.76l-112.36,30.76Z"/>
    <path id="Polygon_62" data-name="Polygon 62" class="cls-54" d="M4424.99,2717.02l-143.35-5.25L4313,2752Z"/>
    <path id="Polygon_63" data-name="Polygon 63" class="cls-55" d="M4283.43,2712.84l136.15,4.5-31.13-17.07Z"/>
    <path id="Polygon_64" data-name="Polygon 64" class="cls-56" d="M3014,3175l734.79,7.01,116.22-97.02Z"/>
    <path id="Polygon_65" data-name="Polygon 65" class="cls-57" d="M3014.81,3175.37l850.12-88.18L3417,3082Z"/>
  </g>
</svg>
