<svg id="Frame1" xmlns="http://www.w3.org/2000/svg" width="3800" height="3197" viewBox="0 0 3800 3197">
  <defs>
    <style>
      .cls-1 {
        fill: #ffd2a5;
      }

      .cls-1, .cls-10, .cls-11, .cls-12, .cls-13, .cls-14, .cls-15, .cls-16, .cls-17, .cls-18, .cls-19, .cls-2, .cls-20, .cls-21, .cls-22, .cls-23, .cls-24, .cls-25, .cls-26, .cls-27, .cls-28, .cls-29, .cls-3, .cls-30, .cls-31, .cls-32, .cls-33, .cls-34, .cls-35, .cls-36, .cls-37, .cls-38, .cls-39, .cls-4, .cls-40, .cls-41, .cls-42, .cls-43, .cls-44, .cls-45, .cls-46, .cls-47, .cls-48, .cls-49, .cls-5, .cls-50, .cls-51, .cls-6, .cls-7, .cls-8, .cls-9 {
        fill-rule: evenodd;
      }

      .cls-2 {
        fill: #ffc993;
      }

      .cls-3 {
        fill: #ffcf9f;
      }

      .cls-4 {
        fill: #ffc290;
      }

      .cls-5 {
        fill: #ffdeb1;
      }

      .cls-6 {
        fill: #febc7b;
      }

      .cls-7 {
        fill: #ffd8a6;
      }

      .cls-8 {
        fill: #ffbd87;
      }

      .cls-9 {
        fill: #ffc38b;
      }

      .cls-10 {
        fill: #ffb77b;
      }

      .cls-11 {
        fill: #f5a061;
      }

      .cls-12 {
        fill: #ff273a;
      }

      .cls-13 {
        fill: #ff335f;
      }

      .cls-14 {
        fill: #ff707f;
      }

      .cls-15 {
        fill: #ffd49f;
      }

      .cls-16 {
        fill: #ffb47d;
      }

      .cls-17 {
        fill: #ffd5a0;
      }

      .cls-18 {
        fill: #ffaf6f;
      }

      .cls-19 {
        fill: #ffa664;
      }

      .cls-20 {
        fill: #ffc28b;
      }

      .cls-21 {
        fill: #ffd39f;
      }

      .cls-22 {
        fill: #f6a566;
      }

      .cls-23 {
        fill: #ffb47c;
      }

      .cls-24 {
        fill: #ffca92;
      }

      .cls-25 {
        fill: #ffbc81;
      }

      .cls-26 {
        fill: #fdaf73;
      }

      .cls-27 {
        fill: #ffc48b;
      }

      .cls-28 {
        fill: #f8ac78;
      }

      .cls-29 {
        fill: #f2975b;
      }

      .cls-30 {
        fill: #e99358;
      }

      .cls-31 {
        fill: #259be9;
      }

      .cls-32 {
        fill: #68d1ff;
      }

      .cls-33 {
        fill: #4ecafa;
      }

      .cls-34 {
        fill: #2aa4eb;
      }

      .cls-35 {
        fill: #86c9fc;
      }

      .cls-36 {
        fill: #faa769;
      }

      .cls-37 {
        fill: #ffe1b2;
      }

      .cls-38 {
        fill: #f9d7a2;
      }

      .cls-39 {
        fill: #f5a161;
      }

      .cls-40 {
        fill: #ffe0b2;
      }

      .cls-41 {
        fill: #969595;
      }

      .cls-42 {
        fill: #9b9a99;
      }

      .cls-43 {
        fill: #8b8b8b;
      }

      .cls-44 {
        fill: #a2a2a2;
      }

      .cls-45 {
        fill: #b2b2b2;
      }

      .cls-46 {
        fill: #a3a3a3;
      }

      .cls-47 {
        fill: #c3c3c3;
      }

      .cls-48 {
        fill: #b9b7b7;
      }

      .cls-49 {
        fill: #ababab;
      }

      .cls-50 {
        fill: #a1a1a1;
      }

      .cls-51 {
        fill: #b9b9b9;
      }
    </style>
  </defs>
  <g id="Face">
    <path id="Polygon_1" data-name="Polygon 1" class="cls-1" d="M3801.93,560l-55.28,336.737L3381.73,446.663Z"/>
    <path id="Polygon_2" data-name="Polygon 2" class="cls-2" d="M2920.21,1257.63l479.13-807.87L3752.39,884.9Z"/>
    <path id="Polygon_3" data-name="Polygon 3" class="cls-3" d="M2927.38,1257.34l85.94-1098.894,399.46,292.2Z"/>
    <path id="Polygon_4" data-name="Polygon 4" class="cls-4" d="M2930.83,1264.07L2208.1,546.705l812.66-381.691Z"/>
  </g>
  <g id="Ear">
    <path id="Polygon_5" data-name="Polygon 5" class="cls-5" d="M2018.32,647.273L2244.56,30.487,3041.57,176.75Z"/>
    <path id="Polygon_55" data-name="Polygon 55" class="cls-6" d="M3220.46,0.854l138.68,412.739L3055.11,190.32Z"/>
    <path id="Polygon_6" data-name="Polygon 6" class="cls-7" d="M3215.91,6.052L3068.6,194.083,2803.85,136.13Z"/>
  </g>
  <g id="Neck">
    <path id="Polygon_7" data-name="Polygon 7" class="cls-8" d="M2933.87,1249.54l-677.66-41.4-34.31-652.7Z"/>
    <path id="Polygon_8" data-name="Polygon 8" class="cls-9" d="M2256.71,1190.28l680.48,53.16-91.62,343.67Z"/>
    <path id="Polygon_9" data-name="Polygon 9" class="cls-10" d="M3226.74,1668.14l-393.48-89.06,91.22-337.82Z"/>
    <path id="Polygon_10" data-name="Polygon 10" class="cls-11" d="M2919.69,1253.96l354.95-164.89-53.84,580.45Z"/>
  </g>
  <g id="Colar">
    <path id="Polygon_11" data-name="Polygon 11" class="cls-12" d="M3343.29,1631.29l-136.58,228.64,17.23-362.49Z"/>
    <path id="Polygon_12" data-name="Polygon 12" class="cls-13" d="M2835.83,1577.47l388.84,86.67-10.75,206.58Z"/>
    <path id="Polygon_13" data-name="Polygon 13" class="cls-14" d="M3213.92,1845.19L2121.9,1423.93l134.7-262.4Z"/>
  </g>
  <g id="LeftLeg">
    <path id="Polygon_17" data-name="Polygon 17" class="cls-15" d="M2586.89,2534.88l302.22-122.96,144.93,116.58Z"/>
    <path id="Polygon_18" data-name="Polygon 18" class="cls-16" d="M2632.17,2858.32l-8.68-326.88,413.37-9.8Z"/>
  </g>
  <g id="Chest">
    <path id="Polygon_14" data-name="Polygon 14" class="cls-17" d="M2122.56,1405.6l1093.82,438.84L2649.1,2233.17Z"/>
    <path id="Polygon_15" data-name="Polygon 15" class="cls-18" d="M3220.47,1839.34l-333.18,581.05-250.44-199.55Z"/>
    <path id="Polygon_16" data-name="Polygon 16" class="cls-19" d="M2586.2,2541.42l55.37-324.98,250.44,195.83Z"/>
    <path id="Polygon_19" data-name="Polygon 19" class="cls-20" d="M2151.4,2166.73l-22.48-767.58,518.11,825.12Z"/>
  </g>
  <g id="RightLeg">
    <path id="Polygon_20" data-name="Polygon 20" class="cls-21" d="M2143.4,2738.94l17.41-588.58,488.94,63.24Z"/>
    <path id="Polygon_21" data-name="Polygon 21" class="cls-22" d="M2499.84,3171.64l-356.48-446.3,500.88-506.84Z"/>
    <path id="Polygon_22" data-name="Polygon 22" class="cls-23" d="M2560.43,2716.45l177.63,452.43-253.36-4.51Z"/>
  </g>
  <g id="UpperBody">
    <path id="Polygon_23" data-name="Polygon 23" class="cls-24" d="M2166.92,2160.1l-261.13-678.4,234.15-80.09Z"/>
    <path id="Polygon_24" data-name="Polygon 24" class="cls-25" d="M1913.17,1482.66l258.19,673.87-90.04,193.3Z"/>
    <path id="Polygon_25" data-name="Polygon 25" class="cls-26" d="M2065.54,2297.25l107.98-147.79-26.4,456.72Z"/>
    <path id="Polygon_26" data-name="Polygon 26" class="cls-27" d="M2153.07,2604.32l-421.88-607.64,182.84-517.59Z"/>
    <path id="Polygon_27" data-name="Polygon 27" class="cls-28" d="M2157.24,2602.13l-998.38-244.48,578.66-376.16Z"/>
    <path id="Polygon_28" data-name="Polygon 28" class="cls-29" d="M2154.36,2596.2l-853.08,21.18-78.35-294.9Z"/>
    <path id="Polygon_29" data-name="Polygon 29" class="cls-30" d="M1227.1,2322.88l87.07,291.93-303.66-1.85Z"/>
  </g>
  <g id="Strap">
    <path id="Polygon_30" data-name="Polygon 30" class="cls-31" d="M1968.7,1318.78l159.71,91.27-233.6,84.99Z"/>
    <path id="Polygon_31" data-name="Polygon 31" class="cls-32" d="M1738.75,1989.86L1622.2,1493.93l355.58-175.27Z"/>
    <path id="Polygon_32" data-name="Polygon 32" class="cls-33" d="M1626.68,1488.49l121.41,495.13-274.31,9.01Z"/>
    <path id="Polygon_33" data-name="Polygon 33" class="cls-34" d="M1227.52,2329.04l238.94-347.82,276.68-2.76Z"/>
    <path id="Polygon_34" data-name="Polygon 34" class="cls-35" d="M1494.01,1969.16l-495.248,670L952.2,2285.69Z"/>
  </g>
  <g id="Butt">
    <path id="Polygon_35" data-name="Polygon 35" class="cls-36" d="M953.84,2291.17l676.75-807.32-142.61,495.86Z"/>
    <path id="Polygon_36" data-name="Polygon 36" class="cls-9" d="M1628.57,1490.78l-668.409,808.6L294.774,2030.73Z"/>
    <path id="Polygon_37" data-name="Polygon 37" class="cls-37" d="M1629.47,1497.18L299.126,2033.33l426.968-530.88Z"/>
    <path id="Polygon_38" data-name="Polygon 38" class="cls-38" d="M732.438,1503.82l-436.4,541.92,95.024-308.25Z"/>
    <path id="Polygon_39" data-name="Polygon 39" class="cls-39" d="M293.084,2018.3l168.338,71.83-113.361,83.8Z"/>
  </g>
  <g id="Tail">
    <path id="Polygon_40" data-name="Polygon 40" class="cls-37" d="M736.684,856.15L512.141,1675.88l-111.779,66.8Z"/>
    <path id="Polygon_41" data-name="Polygon 41" class="cls-20" d="M407.288,1729.37L612.68,940.337l134.7-78.345Z"/>
    <path id="Polygon_42" data-name="Polygon 42" class="cls-40" d="M637.908,417.187L747.949,867.549,614.035,970.956Z"/>
  </g>
  <g id="LeftTire">
    <path id="Polygon_49" data-name="Polygon 49" class="cls-41" d="M1350.22,2731.34l-240.09,439.53L894.16,2763.16Z"/>
    <path id="Polygon_50" data-name="Polygon 50" class="cls-42" d="M1342.47,2737.05l-434.4,29.64,76.365-179.55Z"/>
    <path id="Polygon_51" data-name="Polygon 51" class="cls-43" d="M1345.31,2747.42l-336.13-135.08,749.82-8.62Z"/>
    <path id="Polygon_52" data-name="Polygon 52" class="cls-44" d="M1331.54,2744.17l421.36-142.8,89.09,140.97Z"/>
    <path id="Polygon_53" data-name="Polygon 53" class="cls-45" d="M1335.77,2735.85l498.71-.09-244.35,432.21Z"/>
    <path id="Polygon_54" data-name="Polygon 54" class="cls-46" d="M1115.31,3164.7l229.56-450.36,249.85,443.17Z"/>
  </g>
  <g id="RightTire">
    <path id="Polygon_43" data-name="Polygon 43" class="cls-47" d="M517.813,2658.45L439.2,2087.31l525.884,196.26Z"/>
    <path id="Polygon_44" data-name="Polygon 44" class="cls-48" d="M524.1,2654.47l-531.7-209.01,460.165-361.69Z"/>
    <path id="Polygon_45" data-name="Polygon 45" class="cls-49" d="M522.194,2645.16L87.535,2999.05,2.554,2428.79Z"/>
    <path id="Polygon_46" data-name="Polygon 46" class="cls-50" d="M519.616,2640.97l95.009,556L77.3,2990.95Z"/>
    <path id="Polygon_47" data-name="Polygon 47" class="cls-46" d="M515.337,2635.45l544.023,205.63L604.884,3199.06Z"/>
    <path id="Polygon_48" data-name="Polygon 48" class="cls-51" d="M515.751,2642.39l444.617-355.95L1061.4,2843.96Z"/>
  </g>
</svg>
