<svg xmlns="http://www.w3.org/2000/svg" width="50" height="50" viewBox="0 0 50 50">
  <metadata><?xpacket begin="﻿" id="W5M0MpCehiHzreSzNTczkc9d"?>
<x:xmpmeta xmlns:x="adobe:ns:meta/" x:xmptk="Adobe XMP Core 5.6-c138 79.159824, 2016/09/14-01:09:01        ">
   <rdf:RDF xmlns:rdf="http://www.w3.org/1999/02/22-rdf-syntax-ns#">
      <rdf:Description rdf:about=""/>
   </rdf:RDF>
</x:xmpmeta>
                                                                                                    
                                                                                                    
                                                                                                    
                                                                                                    
                                                                                                    
                                                                                                    
                                                                                                    
                                                                                                    
                                                                                                    
                                                                                                    
                                                                                                    
                                                                                                    
                                                                                                    
                                                                                                    
                                                                                                    
                                                                                                    
                                                                                                    
                                                                                                    
                                                                                                    
                                                                                                    
                           
<?xpacket end="w"?></metadata>
<defs>
    <style>
      .cls-1 {
        fill: #fff;
        fill-rule: evenodd;
      }
    </style>
  </defs>
  <path id="Contact" class="cls-1" d="M10,13c2,0.1,5.42,3.732,6.089,6.037C16.878,21.758,14.025,23.834,12,25c-1.855,1.068-.063,3.92,1,5s4.531,6.013,6,7,2.683,0.833,4,1c4.39,0.556,4.644-3.96,7-2,1.11,0.923,4.728,4.729,5,6,0.889,4.151-9.214,6.066-12,5C18.141,45.141,5.43,30.489,5,28c-0.61-3.529-.755-8.616,0-10S8,12.9,10,13Zm15,0c8.1-.138,13.962,7.519,14,14,0.02,3.479-3.739,6.913-6,2,0.57-6.369-1.739-9.484-7-10C20.6,16.864,22.2,13.048,25,13ZM25,3c14.513-.3,26.389,14.871,23,26-1.268,4.163-4.419,3.383-5,1C44.62,19.959,37.254,9.206,24,8,20.551,6.15,21.556,3.071,25,3Z"/>
</svg>
