<svg xmlns="http://www.w3.org/2000/svg" width="50" height="50" viewBox="0 0 50 50">
  <metadata><?xpacket begin="﻿" id="W5M0MpCehiHzreSzNTczkc9d"?>
<x:xmpmeta xmlns:x="adobe:ns:meta/" x:xmptk="Adobe XMP Core 5.6-c138 79.159824, 2016/09/14-01:09:01        ">
   <rdf:RDF xmlns:rdf="http://www.w3.org/1999/02/22-rdf-syntax-ns#">
      <rdf:Description rdf:about=""/>
   </rdf:RDF>
</x:xmpmeta>
                                                                                                    
                                                                                                    
                                                                                                    
                                                                                                    
                                                                                                    
                                                                                                    
                                                                                                    
                                                                                                    
                                                                                                    
                                                                                                    
                                                                                                    
                                                                                                    
                                                                                                    
                                                                                                    
                                                                                                    
                                                                                                    
                                                                                                    
                                                                                                    
                                                                                                    
                                                                                                    
                           
<?xpacket end="w"?></metadata>
<defs>
    <style>
      .cls-1 {
        fill: #fff;
        fill-rule: evenodd;
      }
    </style>
  </defs>
  <path id="HomeIcon" class="cls-1" d="M4,23C5.085,21.621,25,3,25,3S45.2,20.951,46,22c2.455,3.211-2.06,8.588-5,6-0.871-.766-16-13-16-13S11.115,27.156,10,28C6.551,30.613,1.764,25.841,4,23ZM6.957,35.012C7.366,34.032,25,19,25,19S42.66,34.005,43,35.012a18.829,18.829,0,0,1,0,6.98c-0.405.89-1.281,2.016-2,2.016H31c-0.881,0-1-2.107-1-3.016v-3.98A2.97,2.97,0,0,0,28,35H22a2.834,2.834,0,0,0-2,2.012v3.98c0,0.791-.538,3.016-1,3.016H9a2.979,2.979,0,0,1-2.043-2.016A20.526,20.526,0,0,1,6.957,35.012Z"/>
</svg>
