<svg xmlns="http://www.w3.org/2000/svg" width="50" height="50" viewBox="0 0 50 50">
  <metadata><?xpacket begin="﻿" id="W5M0MpCehiHzreSzNTczkc9d"?>
<x:xmpmeta xmlns:x="adobe:ns:meta/" x:xmptk="Adobe XMP Core 5.6-c138 79.159824, 2016/09/14-01:09:01        ">
   <rdf:RDF xmlns:rdf="http://www.w3.org/1999/02/22-rdf-syntax-ns#">
      <rdf:Description rdf:about=""/>
   </rdf:RDF>
</x:xmpmeta>
                                                                                                    
                                                                                                    
                                                                                                    
                                                                                                    
                                                                                                    
                                                                                                    
                                                                                                    
                                                                                                    
                                                                                                    
                                                                                                    
                                                                                                    
                                                                                                    
                                                                                                    
                                                                                                    
                                                                                                    
                                                                                                    
                                                                                                    
                                                                                                    
                                                                                                    
                                                                                                    
                           
<?xpacket end="w"?></metadata>
<defs>
    <style>
      .cls-1 {
        fill: #fff;
        fill-rule: evenodd;
      }
    </style>
  </defs>
  <path id="WorkIcon" class="cls-1" d="M42,44V12a8,8,0,0,1,8,8V36A8,8,0,0,1,42,44Zm-5,0H13a2,2,0,0,1-2-2V14a2,2,0,0,1,2-2h3V6a4,4,0,0,1,4-4H30a4,4,0,0,1,4,4v6h3a2,2,0,0,1,2,2V42A2,2,0,0,1,37,44ZM31,11V9a4,4,0,0,0-4-4H23a4,4,0,0,0-4,4v2a3.968,3.968,0,0,0,.141,1H30.859A3.968,3.968,0,0,0,31,11ZM0,36V20a8,8,0,0,1,8-8V44A8,8,0,0,1,0,36Z"/>
</svg>
