<svg id="GitHubIcon" xmlns="http://www.w3.org/2000/svg" width="18" height="23" viewBox="0 0 18 23">
  <metadata><?xpacket begin="﻿" id="W5M0MpCehiHzreSzNTczkc9d"?>
<x:xmpmeta xmlns:x="adobe:ns:meta/" x:xmptk="Adobe XMP Core 5.6-c138 79.159824, 2016/09/14-01:09:01        ">
   <rdf:RDF xmlns:rdf="http://www.w3.org/1999/02/22-rdf-syntax-ns#">
      <rdf:Description rdf:about=""/>
   </rdf:RDF>
</x:xmpmeta>
                                                                                                    
                                                                                                    
                                                                                                    
                                                                                                    
                                                                                                    
                                                                                                    
                                                                                                    
                                                                                                    
                                                                                                    
                                                                                                    
                                                                                                    
                                                                                                    
                                                                                                    
                                                                                                    
                                                                                                    
                                                                                                    
                                                                                                    
                                                                                                    
                                                                                                    
                                                                                                    
                           
<?xpacket end="w"?></metadata>
<defs>
    <style>
      .cls-1 {
        fill: #fff;
        fill-rule: evenodd;
      }
    </style>
  </defs>
  <path id="Icon" class="cls-1" d="M17.449,6.7A5.415,5.415,0,0,1,17.969,9a6.1,6.1,0,0,1-4.018,5.514A2.979,2.979,0,0,1,14,15v5a3,3,0,0,1-6,0V18c-1.62.421-4.589,0.269-5-1s-1.6-2.468-2-4,2.468,2.854,3,4,4,0,4,0V15a2.986,2.986,0,0,1,.049-0.486A6.1,6.1,0,0,1,4.031,9,5.528,5.528,0,0,1,5.158,5.684l-1.171.851-0.536-5.1,4.6,2.048a7.81,7.81,0,0,1,6.1.085L17.986,2Z"/>
</svg>
