<svg xmlns="http://www.w3.org/2000/svg" width="14" height="14" viewBox="0 0 14 14">
  <metadata><?xpacket begin="﻿" id="W5M0MpCehiHzreSzNTczkc9d"?>
<x:xmpmeta xmlns:x="adobe:ns:meta/" x:xmptk="Adobe XMP Core 5.6-c138 79.159824, 2016/09/14-01:09:01        ">
   <rdf:RDF xmlns:rdf="http://www.w3.org/1999/02/22-rdf-syntax-ns#">
      <rdf:Description rdf:about=""/>
   </rdf:RDF>
</x:xmpmeta>
                                                                                                    
                                                                                                    
                                                                                                    
                                                                                                    
                                                                                                    
                                                                                                    
                                                                                                    
                                                                                                    
                                                                                                    
                                                                                                    
                                                                                                    
                                                                                                    
                                                                                                    
                                                                                                    
                                                                                                    
                                                                                                    
                                                                                                    
                                                                                                    
                                                                                                    
                                                                                                    
                           
<?xpacket end="w"?></metadata>
<defs>
    <style>
      .cls-1 {
        fill: #fff;
        fill-rule: evenodd;
      }
    </style>
  </defs>
  <path class="cls-1" d="M8,6c0.783-1.247,5.6-1.857,6,0,0.056,0.257,0,6.309,0,7s-3,1.238-3,0,0.06-2.107,0-4S8.207,7.472,8,9,7.039,7.531,8,6Z"/>
  <path id="Ellipse_1_copy" data-name="Ellipse 1 copy" class="cls-1" d="M2,0A2,2,0,1,1,0,2,2,2,0,0,1,2,0ZM1,5H3A1,1,0,0,1,4,6v7a1,1,0,0,1-1,1H1a1,1,0,0,1-1-1V6A1,1,0,0,1,1,5ZM6,5H7A1,1,0,0,1,8,6v7a1,1,0,0,1-1,1H6a1,1,0,0,1-1-1V6A1,1,0,0,1,6,5Z"/>
</svg>
